<?xml version="1.0" encoding="UTF-8"?>
<svg version="1.1" xmlns="http://www.w3.org/2000/svg" width="1024" height="1024">
<path d="M0 0 C337.92 0 675.84 0 1024 0 C1024 337.92 1024 675.84 1024 1024 C686.08 1024 348.16 1024 0 1024 C0 686.08 0 348.16 0 0 Z " fill="#5E89B4" transform="translate(0,0)"/>
<path d="M0 0 C337.92 0 675.84 0 1024 0 C1024 337.92 1024 675.84 1024 1024 C686.08 1024 348.16 1024 0 1024 C0 686.08 0 348.16 0 0 Z M202.8125 93.25 C201.9862915 93.46760986 201.16008301 93.68521973 200.30883789 93.90942383 C174.05628722 101.03565785 151.52177812 114.17443365 132 133 C131.20980469 133.72703125 130.41960937 134.4540625 129.60546875 135.203125 C110.43800497 153.32997341 98.77109557 179.23690586 93.125 204.625 C92.93389648 205.48101807 92.74279297 206.33703613 92.54589844 207.21899414 C89.1346203 223.90856408 88.70731345 240.6845477 88.74603271 257.65074158 C88.74372324 259.880279 88.74054347 262.10981566 88.73657823 264.33935076 C88.72828842 270.41468172 88.73232886 276.48994923 88.73855066 282.56528032 C88.74262996 288.4606805 88.73726866 294.35606763 88.73225593 300.25146599 C88.72176445 313.04134049 88.72262125 325.83119491 88.72841376 338.62107128 C88.73345805 349.81477661 88.73475215 361.00847462 88.73236847 372.20218086 C88.7322157 372.94659958 88.73206293 373.69101829 88.73190553 374.45799515 C88.73128278 377.48034691 88.73064598 380.50269867 88.729986 383.52505042 C88.72387687 411.83987233 88.72940072 440.15468152 88.7401798 468.46950146 C88.74966903 493.58701496 88.74882154 518.70450817 88.73925781 543.82202148 C88.72853193 572.08574105 88.72431122 600.34944937 88.73048234 628.61317068 C88.73112371 631.63011491 88.73174939 634.64705914 88.73236847 637.66400337 C88.73252662 638.40677266 88.73268478 639.14954196 88.73284773 639.91481941 C88.73511592 651.09666287 88.73247474 662.27849817 88.72740936 673.4603405 C88.72167387 686.18437247 88.72315648 698.90838134 88.73397085 711.63241046 C88.73920801 718.11791238 88.74131781 724.60337325 88.73467255 731.08887482 C88.72867025 737.03706792 88.73205816 742.98518233 88.74262765 748.93336839 C88.74484367 751.07378739 88.74376638 753.21421317 88.73887607 755.35462772 C88.70175615 772.96601925 89.65080206 790.34097161 93.25 807.625 C93.46615967 808.67421631 93.68231934 809.72343262 93.9050293 810.80444336 C102.21827792 849.64405947 124.78963399 883.97443267 158 906 C189.37083185 926.09603976 225.34446597 932.51251214 262.04946899 932.3742218 C264.28572127 932.37696988 266.52197224 932.38102831 268.75822008 932.38626546 C274.8382054 932.3967515 280.91804155 932.38878946 286.99802017 932.37751496 C292.90211587 932.36952792 298.80619297 932.37576378 304.71028756 932.38149153 C317.51498121 932.39335974 330.3196253 932.38837655 343.12431617 932.37621326 C354.32921294 932.3656431 365.53409289 932.36114209 376.7389946 932.36250877 C377.48459344 932.3625928 378.23019228 932.36267683 378.99838503 932.36276341 C382.02560979 932.3631157 385.05283454 932.36349973 388.08005929 932.36392899 C416.42839361 932.36788652 444.77669822 932.35521135 473.12502405 932.33440243 C498.26988029 932.31603169 523.41470808 932.31022188 548.55957031 932.31567383 C550.17459721 932.31602026 551.7896241 932.31636636 553.404651 932.31671212 C554.6023528 932.31696861 554.6023528 932.31696861 555.8242506 932.31723029 C559.84427286 932.31808393 563.86429513 932.31890771 567.8843174 932.31969929 C568.67753841 932.31985637 569.47075943 932.32001345 570.28801744 932.32017529 C591.34739599 932.32417158 612.40677183 932.31868145 633.46614873 932.310188 C635.7340023 932.30928103 638.00185587 932.30837538 640.26970944 932.30747276 C641.77391047 932.30687166 643.27811149 932.30626304 644.78231251 932.30564686 C655.23729997 932.30143758 665.69228204 932.30084215 676.14727007 932.30275235 C689.62389887 932.30520259 703.10049887 932.30106501 716.57711984 932.28554235 C723.0687136 932.27823605 729.56027618 932.27419805 736.05187416 932.27878571 C742.00550149 932.28289068 747.95904739 932.27761624 753.91266243 932.26515963 C756.05500947 932.26225494 758.1973643 932.26263017 760.33970924 932.26680271 C777.59147457 932.29732698 794.8112445 931.63676732 811.6875 927.75 C812.6475293 927.53311523 813.60755859 927.31623047 814.59667969 927.09277344 C853.34497886 918.01578099 888.16370811 895.60461825 909.49707031 861.60400391 C935.61778403 818.66878746 935.31350717 771.93631042 935.26144934 723.27596557 C935.25688148 716.9479244 935.26392992 710.61989384 935.26940918 704.29185486 C935.27774982 692.63975591 935.2770819 680.9876835 935.27158624 669.33558393 C935.26653198 658.56485415 935.26525243 647.79413199 935.26763153 637.02340126 C935.2677843 636.30572409 935.26793707 635.58804692 935.26809447 634.84862195 C935.26871727 631.93445561 935.26935408 629.02028926 935.270014 626.10612292 C935.27611679 598.83019035 935.27060966 571.554271 935.2598202 544.27834047 C935.25033376 520.11288069 935.25117746 495.94744201 935.26074219 471.78198242 C935.27148226 444.55676507 935.27568074 417.3315594 935.26951766 390.10634023 C935.26887635 387.19690883 935.26825066 384.28747744 935.26763153 381.37804604 C935.26747338 380.66180576 935.26731522 379.94556549 935.26715227 379.20762096 C935.2648897 368.45299293 935.26751468 357.69837341 935.27259064 346.94374657 C935.27834244 334.69700938 935.27661948 322.45030058 935.26602915 310.2035658 C935.26081278 303.96803265 935.25864583 297.73254201 935.26532745 291.49700928 C935.32345481 232.15980206 934.29044796 175.11583728 890.375 130 C869.16053891 108.87414549 841.12920452 96.48416037 812 91 C811.08727158 90.82609308 810.17454316 90.65218617 809.23415631 90.47300935 C797.82594963 88.5727485 786.49100163 88.72114201 774.95674133 88.74603271 C772.62356173 88.74372574 770.29038285 88.74054763 767.95720547 88.73657823 C761.57220737 88.72825387 755.18726929 88.73234482 748.80227101 88.73855066 C742.61487422 88.74359978 736.42748326 88.73727587 730.24008815 88.73225593 C716.80919886 88.72174422 703.37832863 88.72262953 689.94743753 88.72841376 C678.19046786 88.73345195 666.43350518 88.73475499 654.67653465 88.73236847 C653.50510582 88.73213931 653.50510582 88.73213931 652.31001177 88.73190553 C649.13953155 88.73128281 645.96905134 88.73064601 642.79857113 88.729986 C613.07301204 88.72387183 583.34746506 88.7294083 553.62190784 88.7401798 C527.24313063 88.7496659 500.86437274 88.74882522 474.4855957 88.73925781 C444.82071057 88.72853442 415.15583614 88.72431016 385.49094933 88.73048234 C382.32481428 88.73112373 379.15867923 88.73174941 375.99254417 88.73236847 C375.21301304 88.73252662 374.43348191 88.73268478 373.63032863 88.73284773 C361.88749939 88.73511731 350.14467791 88.73247205 338.40184975 88.72740936 C325.03830479 88.72167652 311.67478182 88.72315072 298.31123958 88.73397085 C291.49780319 88.73930641 284.68440823 88.74131093 277.87097168 88.73467255 C271.62409783 88.72867845 265.37729903 88.73204495 259.13043191 88.74262765 C256.8801915 88.74484713 254.62994465 88.74375838 252.37970845 88.73887607 C235.79131721 88.70566805 218.93484766 88.87330111 202.8125 93.25 Z " fill="#FEFEFE" transform="translate(0,0)"/>
<path d="M0 0 C22.11397627 4.93660518 45.19591104 4.37805205 67.73579812 4.31384444 C71.58022606 4.30485163 75.42465242 4.30682536 79.26908875 4.3072052 C85.71074499 4.306278 92.15235322 4.29772183 98.59399414 4.28393555 C105.97861503 4.26818677 113.36318372 4.26293923 120.7478202 4.2636711 C128.71043106 4.2643529 136.67302258 4.25738232 144.63562751 4.2482245 C146.88832982 4.24612142 149.14102888 4.24538727 151.39373207 4.24498558 C171.23018849 4.24696983 171.23018849 4.24696983 191.05541992 3.6418457 C192.25768329 3.5863205 192.25768329 3.5863205 193.48423481 3.52967358 C206.7116179 2.81573524 219.4459954 0.06270407 232.3046875 -2.984375 C267.3640306 -11.26998234 304.50054031 -9.91584205 336.02832031 9.23925781 C374.48419214 34.02916144 389.52388204 71.80726044 398.88014221 114.71807861 C402.87791669 133.26983322 406.52831524 151.89600094 410.21684933 170.51118851 C414.34283857 191.33340472 418.60077949 212.1228166 422.9921875 232.890625 C426.72412416 250.5577601 430.4078607 268.23035388 433.8671875 285.953125 C434.03248962 286.7960611 434.19779175 287.63899719 434.36810303 288.50747681 C434.82446573 290.84025248 435.27656235 293.17380203 435.7265625 295.5078125 C436.0973291 297.42956299 436.0973291 297.42956299 436.47558594 299.39013672 C441.41870137 327.80364573 438.79847778 356.88555954 422.1171875 381.078125 C407.59659732 399.28934174 389.47365927 410.81915175 366.16015625 413.80078125 C346.68188211 415.57607966 326.01114146 411.36075801 310.54541016 398.80175781 C306.93616887 395.69928977 303.50493014 392.41969644 300.1171875 389.078125 C299.55306152 388.53808838 298.98893555 387.99805176 298.40771484 387.44165039 C294.26264242 383.41722575 290.75295154 379.18899834 287.3671875 374.515625 C286.32168937 373.09664075 285.27478644 371.6786906 284.2265625 370.26171875 C283.44635742 369.20573486 283.44635742 369.20573486 282.65039062 368.12841797 C280.36134556 365.06736694 277.99410898 362.07112593 275.6171875 359.078125 C271.30502239 353.63182885 267.10962013 348.10780901 262.95581055 342.54003906 C257.96631866 335.85758408 252.90764678 329.22868964 247.84692383 322.60009766 C244.24617867 317.88110056 240.66397065 313.15029772 237.1171875 308.390625 C233.22682565 303.19363307 229.24063939 298.0922425 225.1171875 293.078125 C224.49328125 292.294375 223.869375 291.510625 223.2265625 290.703125 C218.27311558 284.74287992 212.85399004 280.85753737 206.1171875 277.078125 C204.87775391 276.3665625 204.87775391 276.3665625 203.61328125 275.640625 C190.88725691 268.7771512 177.25042857 267.9326807 163.08618164 267.90112305 C161.79558838 267.89455185 160.50499512 267.88798065 159.17529297 267.88121033 C154.91765556 267.86030971 150.66001838 267.8498179 146.40234375 267.83984375 C144.92674683 267.83579031 143.45115008 267.83167322 141.97555351 267.82749367 C135.03598346 267.80846903 128.09642382 267.79423496 121.15683275 267.7858817 C113.19353571 267.77613343 105.23051839 267.7498658 97.26731974 267.70938081 C91.08180374 267.67903238 84.89636707 267.66439508 78.71077818 267.66110069 C75.03090052 267.6587706 71.35132253 267.65008186 67.67152596 267.62463951 C40.86837636 267.25418529 40.86837636 267.25418529 15.7421875 275.765625 C15.08774658 276.11028809 14.43330566 276.45495117 13.7590332 276.81005859 C2.73231747 282.82069441 -4.88791897 290.98223854 -12.28417969 300.93798828 C-14.0495454 303.30133523 -15.84265274 305.641838 -17.640625 307.98046875 C-24.18944009 316.50821176 -30.65617846 325.09002537 -37.0078125 333.765625 C-42.67633398 341.50644874 -48.51390694 349.09943432 -54.4296875 356.65234375 C-57.89210556 361.07621857 -61.29512189 365.54386824 -64.6953125 370.015625 C-69.62781995 376.48109938 -74.58691453 382.90310797 -79.8828125 389.078125 C-80.40359375 389.69558594 -80.924375 390.31304688 -81.4609375 390.94921875 C-95.07645406 405.83689216 -114.78077712 412.79066763 -134.44921875 414.36328125 C-156.98960634 414.95307524 -177.30099128 407.14794709 -193.70214844 391.72460938 C-199.45417468 386.09896161 -203.98988093 380.15237699 -207.8828125 373.078125 C-208.34171875 372.26859375 -208.800625 371.4590625 -209.2734375 370.625 C-216.53909119 357.05661058 -219.23890553 342.1390948 -219.2578125 326.890625 C-219.28230469 325.90126953 -219.30679688 324.91191406 -219.33203125 323.89257812 C-219.40474431 304.22369461 -214.06661934 284.34624267 -210.2578125 265.140625 C-209.82166276 262.92791972 -209.3856303 260.71519132 -208.94970703 258.50244141 C-205.74654396 242.279787 -202.45128536 226.0763812 -199.12670898 209.87823486 C-196.26571516 195.93741749 -193.46910518 181.98632536 -190.7578125 168.015625 C-190.43294003 166.34536229 -190.10798935 164.6751148 -189.78295898 163.00488281 C-188.47699694 156.2908705 -187.1717567 149.57673141 -185.87548828 142.86083984 C-170.45850456 63.09432509 -170.45850456 63.09432509 -147.8828125 36.078125 C-147.05136719 35.08296875 -146.21992188 34.0878125 -145.36328125 33.0625 C-131.75997092 17.30213657 -114.42611879 6.03562511 -94.8828125 -0.921875 C-93.82449219 -1.30214844 -92.76617187 -1.68242187 -91.67578125 -2.07421875 C-60.93445731 -12.32132673 -30.73879694 -7.29814495 0 0 Z " fill="#FEFEFE" transform="translate(402.8828125,288.921875)"/>
<path d="M0 0 C0.75369873 0.00491455 1.50739746 0.0098291 2.28393555 0.01489258 C9.03021106 0.15755864 14.11586263 0.73902578 19.0625 5.8125 C21.95461973 10.43989157 21.75606562 14.63775713 21.72265625 19.91796875 C21.7212413 20.75717361 21.71982635 21.59637848 21.71836853 22.46101379 C21.71277215 25.14071216 21.70022035 27.8203269 21.6875 30.5 C21.68248453 32.31705608 21.67792171 34.13411348 21.67382812 35.95117188 C21.66280391 40.40498013 21.64554178 44.85872589 21.625 49.3125 C22.77500488 49.29155273 23.92500977 49.27060547 25.10986328 49.24902344 C29.39245056 49.17640937 33.67498383 49.13062271 37.95800781 49.09277344 C39.80868696 49.07270661 41.65930309 49.04544655 43.50976562 49.01074219 C46.17593977 48.96200567 48.84127287 48.93948213 51.5078125 48.921875 C52.32992218 48.90122986 53.15203186 48.88058472 53.99905396 48.85931396 C59.35773673 48.85723929 62.37739662 49.74594695 66.625 53.3125 C70.32210095 58.49156124 70.07683147 63.69159309 70 69.8125 C70.01160156 70.73675781 70.02320313 71.66101563 70.03515625 72.61328125 C70.01241087 77.91295539 69.64959874 81.7684684 66.625 86.3125 C60.54216725 91.2052133 55.26306897 91.4645358 47.69921875 91.41015625 C46.57783257 91.40803383 46.57783257 91.40803383 45.43379211 91.40586853 C43.05998635 91.40029764 40.68627697 91.3877506 38.3125 91.375 C36.69726699 91.36998123 35.0820325 91.36541899 33.46679688 91.36132812 C29.51949445 91.35033775 25.57226353 91.33309332 21.625 91.3125 C21.6564209 92.99206787 21.6564209 92.99206787 21.68847656 94.70556641 C21.76110426 98.87633377 21.80688211 103.04704568 21.84472656 107.21826172 C21.86479033 109.02044081 21.89204813 110.82255521 21.92675781 112.62451172 C21.97550829 115.22119136 21.99802082 117.81700729 22.015625 120.4140625 C22.03627014 121.2142984 22.05691528 122.0145343 22.07818604 122.83901978 C22.08029498 128.1464723 21.10819494 131.0801353 17.625 135.3125 C12.35383532 139.94473562 7.04890771 139.55671309 0.375 139.625 C-0.55441406 139.65400391 -1.48382813 139.68300781 -2.44140625 139.71289062 C-8.64932932 139.76996488 -12.38582768 139.10608051 -17.375 135.3125 C-20.97429066 130.83088067 -20.77061872 126.77734814 -20.66796875 121.29296875 C-20.66372391 120.43439774 -20.65947906 119.57582672 -20.65510559 118.6912384 C-20.63836995 115.96050086 -20.60072766 113.23051288 -20.5625 110.5 C-20.54744653 108.6438909 -20.53375928 106.78777018 -20.52148438 104.93164062 C-20.48848323 100.39164015 -20.43673659 95.85219698 -20.375 91.3125 C-22.03885742 91.3439209 -22.03885742 91.3439209 -23.73632812 91.37597656 C-27.88105179 91.44878467 -32.02571976 91.49444695 -36.17089844 91.53222656 C-37.95940684 91.55224959 -39.74785054 91.57947654 -41.53613281 91.61425781 C-44.11800162 91.66318955 -46.6989995 91.68556165 -49.28125 91.703125 C-50.46612 91.73409271 -50.46612 91.73409271 -51.67492676 91.76568604 C-57.32383057 91.76793111 -61.67400312 90.52120409 -66.375 87.3125 C-70.6911638 81.74325639 -70.63524908 75.83280399 -70.75 69.0625 C-70.78738281 68.24136719 -70.82476562 67.42023438 -70.86328125 66.57421875 C-70.93950536 61.23006144 -69.9604462 57.6009915 -67.23681641 53.01269531 C-62.05501296 48.28071535 -55.42098592 47.88045162 -48.71875 48.01953125 C-47.53714294 48.02589851 -47.53714294 48.02589851 -46.33166504 48.03239441 C-43.8457441 48.04902383 -41.36067081 48.08664386 -38.875 48.125 C-37.17709514 48.14006729 -35.47917742 48.15375209 -33.78125 48.16601562 C-29.64551281 48.19887534 -25.5103995 48.25054526 -21.375 48.3125 C-21.39071045 47.25337402 -21.4064209 46.19424805 -21.42260742 45.10302734 C-21.47710122 41.15583974 -21.51142046 37.20868511 -21.53979492 33.26123047 C-21.55483738 31.55609537 -21.57527653 29.85099868 -21.60131836 28.14599609 C-21.63790284 25.68837988 -21.65477173 23.23127731 -21.66796875 20.7734375 C-21.68345261 20.01694916 -21.69893646 19.26046082 -21.71488953 18.48104858 C-21.71672598 12.64332241 -20.28662271 8.68554888 -16.5625 4.0625 C-11.61922802 0.10788241 -6.05985292 -0.04623796 0 0 Z " fill="#5C88B3" transform="translate(354.375,364.6875)"/>
<path d="M0 0 C5.46404118 4.10546833 10.7918321 9.73034975 12.15234375 16.6171875 C13.10118026 25.9562974 12.85124487 33.88814349 7.15234375 41.6171875 C1.92940336 47.87114988 -5.48064981 50.82026836 -13.42578125 52 C-21.33091807 52.37288381 -28.39144921 49.76834524 -34.66015625 44.9921875 C-40.8759468 39.05625482 -43.15469482 32.63339772 -43.47265625 24.1171875 C-43.12572722 15.06051376 -40.59718274 8.87890392 -33.97265625 2.6796875 C-24.14161792 -5.02522979 -11.09263149 -6.53376297 0 0 Z " fill="#5A86B3" transform="translate(744.84765625,416.3828125)"/>
<path d="M0 0 C6.71680701 4.00294559 11.15892557 9.35207292 13.6953125 16.74609375 C15.69369407 25.17676598 14.66578756 32.87116535 10.3203125 40.3828125 C5.53843726 46.70215142 -0.91139252 50.78819074 -8.6796875 52.3828125 C-17.624214 53.54501249 -24.20244825 51.30925124 -31.6796875 46.3828125 C-37.88686918 41.38223728 -40.68056212 33.94936819 -42.0625 26.25 C-42.52021986 18.71287965 -39.06854638 11.71881039 -34.4296875 6.0078125 C-25.49629459 -3.52242347 -11.73284004 -5.39484285 0 0 Z " fill="#5A86B3" transform="translate(627.6796875,415.6171875)"/>
<path d="M0 0 C6.88543705 4.40772296 12.16382188 9.1241554 14.0625 17.3203125 C15.13184883 26.59818662 14.7913925 34.67716536 9.0625 42.3203125 C3.65576782 48.39568106 -1.91180469 51.74613165 -9.98046875 52.66796875 C-18.85858698 53.07388506 -25.0591207 51.20272779 -32.00390625 45.67578125 C-38.24822874 39.90076066 -40.54038069 33.48286354 -41.1875 25.0703125 C-40.60363451 16.31233014 -37.12937893 9.06969528 -30.625 3.1328125 C-21.77235664 -3.96793933 -10.26810091 -5.39830305 0 0 Z " fill="#5A86B3" transform="translate(684.9375,362.6796875)"/>
<path d="M0 0 C6.88543705 4.40772296 12.16382188 9.1241554 14.0625 17.3203125 C15.13471664 26.62306827 14.74755459 34.62961683 9.0625 42.3203125 C3.97131452 48.27725795 -2.98744069 51.6361012 -10.70703125 52.703125 C-19.35050999 53.06578844 -25.58441564 50.44459362 -32.25 45.0703125 C-37.42898517 40.27304536 -40.44034066 34.32058815 -41.140625 27.27734375 C-41.32957086 18.63307083 -39.4189717 12.6807858 -33.8125 6.0078125 C-24.75077152 -3.35985858 -11.98381697 -6.30031554 0 0 Z " fill="#5A86B3" transform="translate(684.9375,468.6796875)"/>
<path d="M0 0 C0.59667969 1.84985352 0.59667969 1.84985352 1 4 C-0.546875 6.40234375 -0.546875 6.40234375 -2.75 8.9375 C-5.52859672 12.17086705 -7.86504892 15.31011346 -10 19 C-11.30135125 20.69175663 -12.63755204 22.35704805 -14 24 C-14.40476562 24.52078125 -14.80953125 25.0415625 -15.2265625 25.578125 C-17.5510264 28.51579103 -19.44353746 30.68279165 -23 32 C-21.59819095 29.00286901 -19.95595812 26.42680474 -17.98828125 23.76953125 C-17.39466797 22.96580078 -16.80105469 22.16207031 -16.18945312 21.33398438 C-15.57005859 20.50189453 -14.95066406 19.66980469 -14.3125 18.8125 C-13.41241211 17.59336914 -13.41241211 17.59336914 -12.49414062 16.34960938 C-8.41024189 10.83568809 -4.23576598 5.3979842 0 0 Z " fill="#4576AB" transform="translate(389,591)"/>
<path d="M0 0 C0.33 0 0.66 0 1 0 C1.06058594 0.78246094 1.12117188 1.56492187 1.18359375 2.37109375 C1.26738281 3.38300781 1.35117188 4.39492188 1.4375 5.4375 C1.51871094 6.44683594 1.59992188 7.45617187 1.68359375 8.49609375 C1.73211468 10.93640779 1.73211468 10.93640779 3 12 C3.07244053 14.01964199 3.08377188 16.04167124 3.0625 18.0625 C3.05347656 19.16722656 3.04445313 20.27195312 3.03515625 21.41015625 C3.02355469 22.26480469 3.01195313 23.11945312 3 24 C2.01 23.34 1.02 22.68 0 22 C-0.34057617 19.75341797 -0.34057617 19.75341797 -0.29296875 16.9921875 C-0.28330078 16.00605469 -0.27363281 15.01992188 -0.26367188 14.00390625 C-0.23853516 12.97136719 -0.21339844 11.93882812 -0.1875 10.875 C-0.17396484 9.83472656 -0.16042969 8.79445313 -0.14648438 7.72265625 C-0.11105228 5.14792373 -0.06165221 2.5742167 0 0 Z " fill="#3C71A8" transform="translate(90,766)"/>
<path d="M0 0 C0 6.15706028 -3.98418467 10.69034452 -8 15 C-10.3125 16.375 -10.3125 16.375 -12 17 C-10.32844203 13.22757683 -7.92645254 10.07212347 -5.4375 6.8125 C-5.02564453 6.26658203 -4.61378906 5.72066406 -4.18945312 5.15820312 C-1.16952328 1.16952328 -1.16952328 1.16952328 0 0 Z " fill="#386EA9" transform="translate(346,648)"/>
<path d="M0 0 C5.68502535 1.64566523 10.76681636 4.29032784 16 7 C16 7.33 16 7.66 16 8 C10.11708528 8.75421984 5.62903153 6.45959198 1 3 C0.67 2.01 0.34 1.02 0 0 Z " fill="#4B7BAD" transform="translate(166,908)"/>
<path d="M0 0 C0.66 0.33 1.32 0.66 2 1 C0.5484451 2.67257355 -0.91144409 4.33791758 -2.375 6 C-3.18710938 6.928125 -3.99921875 7.85625 -4.8359375 8.8125 C-5.55007812 9.534375 -6.26421875 10.25625 -7 11 C-7.66 11 -8.32 11 -9 11 C-9 11.66 -9 12.32 -9 13 C-9.66 12.67 -10.32 12.34 -11 12 C-8.47295673 6.78797325 -4.38226641 3.6119868 0 0 Z " fill="#4072A8" transform="translate(145,121)"/>
<path d="M0 0 C0.33 0 0.66 0 1 0 C0.48400816 7.8822202 -1.0921453 15.34458305 -3 23 C-3.33 23 -3.66 23 -4 23 C-3.855625 21.741875 -3.71125 20.48375 -3.5625 19.1875 C-2.96183814 13.79870505 -2.47449461 8.40116209 -2 3 C-1.34 3 -0.68 3 0 3 C0 2.01 0 1.02 0 0 Z " fill="#1D5EA3" transform="translate(207,477)"/>
<path d="M0 0 C0.33 0.66 0.66 1.32 1 2 C1.66 2.33 2.32 2.66 3 3 C2.67 4.32 2.34 5.64 2 7 C2.99 7 3.98 7 5 7 C4.38722388 9.96175123 3.74627478 11.38058783 2 14 C-0.29612756 4.58997722 -0.29612756 4.58997722 0 0 Z " fill="#306AA6" transform="translate(833,556)"/>
<path d="M0 0 C5.18720934 4.20584541 6.47275469 8.60543632 8 15 C5.52733876 12.73762373 3.936134 10.42546667 2.3125 7.5 C1.65701172 6.33984375 1.65701172 6.33984375 0.98828125 5.15625 C0 3 0 3 0 0 Z " fill="#2C65A4" transform="translate(106,844)"/>
<path d="M0 0 C0 3.32058331 -0.43061972 5.08543662 -2 8 C-4.625 9.3125 -4.625 9.3125 -7 10 C-5.33248852 6.05860922 -2.77289351 3.2107188 0 0 Z " fill="#376CA7" transform="translate(333,665)"/>
<path d="M0 0 C2 2 2 2 2.125 4.625 C2.08375 5.40875 2.0425 6.1925 2 7 C2.66 7 3.32 7 4 7 C3.67 9.31 3.34 11.62 3 14 C1.20724134 10.88089144 0.65709282 8.32317572 0.375 4.75 C0.30023437 3.85796875 0.22546875 2.9659375 0.1484375 2.046875 C0.09945312 1.37140625 0.05046875 0.6959375 0 0 Z " fill="#2A67A5" transform="translate(830,541)"/>
<path d="M0 0 C0.66 0.33 1.32 0.66 2 1 C-1.17320782 4.53586014 -3.16743695 6.58578031 -8 7 C-5.42215154 4.35247996 -3.08351902 2.05567935 0 0 Z " fill="#396CA5" transform="translate(155,114)"/>
<path d="M0 0 C2.3125 0.1875 2.3125 0.1875 4 1 C0.67692308 4.93846154 0.67692308 4.93846154 -2.75 5.25 C-3.4925 5.1675 -4.235 5.085 -5 5 C-2.75 2.4375 -2.75 2.4375 0 0 Z " fill="#4375AB" transform="translate(808,686)"/>
<path d="M0 0 C1.32 0.33 2.64 0.66 4 1 C0.535 3.97 0.535 3.97 -3 7 C-2.25 2.25 -2.25 2.25 0 0 Z " fill="#5582B2" transform="translate(402,575)"/>
<path d="M0 0 C2.61500768 2.36595933 4.38999603 4.86049226 6 8 C5.67 8.66 5.34 9.32 5 10 C3.0625 8.9375 3.0625 8.9375 1 7 C0.25 3.3125 0.25 3.3125 0 0 Z " fill="#336CA9" transform="translate(193,659)"/>
<path d="M0 0 C0 3 0 3 -2.5 5.6875 C-3.325 6.450625 -4.15 7.21375 -5 8 C-4.64950425 4.75791433 -4.43778819 3.38472296 -1.9375 1.1875 C-1.298125 0.795625 -0.65875 0.40375 0 0 Z " fill="#517EAF" transform="translate(352,642)"/>
<path d="M0 0 C6.64615385 1.47692308 6.64615385 1.47692308 8.4375 4.125 C8.7159375 5.053125 8.7159375 5.053125 9 6 C5.06326356 4.68775452 2.77280706 3.08089673 0 0 Z " fill="#346AA7" transform="translate(740,299)"/>
<path d="M0 0 C2.5 2.3125 2.5 2.3125 5 5 C5 5.99 5 6.98 5 8 C2.21611025 6.29374499 1.14615794 5.52373261 0.25 2.3125 C0.1675 1.549375 0.085 0.78625 0 0 Z " fill="#366BA8" transform="translate(635,591)"/>
<path d="M0 0 C0.33 1.32 0.66 2.64 1 4 C-0.98 5.32 -2.96 6.64 -5 8 C-3.62845496 5.04590299 -2.01136276 2.55991624 0 0 Z " fill="#386BA8" transform="translate(389,591)"/>
<path d="M0 0 C0.33 0.66 0.66 1.32 1 2 C-0.25 4.5625 -0.25 4.5625 -2 7 C-2.99 7.33 -3.98 7.66 -5 8 C-3.8141763 4.62496331 -2.72426311 2.35277269 0 0 Z " fill="#3568A5" transform="translate(122,144)"/>
</svg>
