<?xml version="1.0" encoding="utf-8"?>
<svg xmlns="http://www.w3.org/2000/svg" viewBox="0 0 500 500" xmlns:bx="https://boxy-svg.com">
  <defs>
    <bx:guide x="-44.802" y="-146.251" angle="90"/>
  </defs>
  <path d="M -24.401 -146.25 C 264.252 -145.9 552.911 -145.58 850.317 -145.23 C 850.205 100.075 850.093 345.383 849.978 598.125 C 561.32 597.791 272.662 597.455 -24.74 597.11 C -24.628 351.802 -24.516 106.494 -24.401 -146.25 Z" fill="#5E89B4" style="stroke-width: 1;"/>
  <path d="M -104.95 -269.48 C 232.965 -269.48 570.885 -269.48 919.045 -269.48 C 919.045 68.439 919.045 406.359 919.045 754.519 C 581.125 754.519 243.205 754.519 -104.95 754.519 C -104.95 416.599 -104.95 78.679 -104.95 -269.48 Z M 97.857 -176.23 C 97.031 -176.01 96.205 -175.79 95.353 -175.57 C 69.101 -168.44 46.566 -155.31 27.045 -136.48 C 26.254 -135.75 25.464 -135.03 24.65 -134.28 C 5.483 -116.15 -6.184 -90.244 -11.83 -64.856 C -12.022 -64 -12.213 -63.144 -12.41 -62.262 C -15.821 -45.572 -16.248 -28.796 -16.209 -11.83 C -16.212 -9.6 -16.215 -7.371 -16.219 -5.141 C -16.227 0.934 -16.223 7.009 -16.217 13.085 C -16.213 18.98 -16.218 24.875 -16.223 30.771 C -16.234 43.561 -16.233 56.351 -16.227 69.14 C -16.222 80.334 -16.221 91.528 -16.223 102.722 C -16.223 103.466 -16.223 104.21 -16.224 104.977 C -16.224 108 -16.225 111.022 -16.225 114.044 C -16.232 142.359 -16.226 170.674 -16.215 198.989 C -16.206 224.106 -16.207 249.224 -16.216 274.341 C -16.227 302.605 -16.231 330.869 -16.225 359.133 C -16.224 362.149 -16.224 365.166 -16.223 368.183 C -16.223 368.926 -16.223 369.669 -16.223 370.434 C -16.22 381.616 -16.223 392.798 -16.228 403.98 C -16.234 416.704 -16.232 429.428 -16.221 442.152 C -16.216 448.637 -16.214 455.123 -16.221 461.608 C -16.227 467.556 -16.223 473.505 -16.213 479.453 C -16.211 481.593 -16.212 483.734 -16.217 485.874 C -16.254 503.485 -15.305 520.86 -11.705 538.144 C -11.489 539.194 -11.273 540.243 -11.05 541.324 C -2.737 580.163 19.834 614.494 53.045 636.519 C 84.415 656.615 120.389 663.032 157.094 662.894 C 159.33 662.896 161.567 662.9 163.803 662.906 C 169.883 662.916 175.963 662.908 182.043 662.897 C 187.947 662.889 193.851 662.895 199.755 662.901 C 212.56 662.913 225.364 662.908 238.169 662.896 C 249.374 662.885 260.579 662.88 271.784 662.882 C 272.529 662.882 273.275 662.882 274.043 662.882 C 277.07 662.882 280.097 662.883 283.125 662.883 C 311.473 662.887 339.821 662.875 368.17 662.854 C 393.314 662.835 418.459 662.83 443.604 662.835 C 445.219 662.835 446.834 662.836 448.449 662.836 C 449.647 662.836 449.647 662.836 450.869 662.837 C 454.889 662.837 458.909 662.838 462.929 662.839 C 463.722 662.839 464.515 662.839 465.333 662.84 C 486.392 662.844 507.451 662.838 528.511 662.83 C 530.779 662.829 533.046 662.828 535.314 662.827 C 536.818 662.826 538.323 662.826 539.827 662.825 C 550.282 662.821 560.737 662.82 571.192 662.822 C 584.668 662.825 598.145 662.82 611.622 662.805 C 618.113 662.798 624.605 662.794 631.096 662.798 C 637.05 662.802 643.004 662.797 648.957 662.785 C 651.1 662.782 653.242 662.782 655.384 662.786 C 672.636 662.817 689.856 662.156 706.732 658.269 C 707.692 658.052 708.652 657.836 709.641 657.612 C 748.39 648.535 783.208 626.124 804.542 592.123 C 830.662 549.188 830.358 502.456 830.306 453.795 C 830.301 447.467 830.308 441.139 830.314 434.811 C 830.322 423.159 830.322 411.507 830.316 399.855 C 830.311 389.084 830.31 378.313 830.312 367.543 C 830.312 366.825 830.312 366.107 830.313 365.368 C 830.313 362.454 830.314 359.54 830.315 356.625 C 830.321 329.35 830.315 302.074 830.304 274.798 C 830.295 250.632 830.296 226.467 830.305 202.301 C 830.316 175.076 830.32 147.851 830.314 120.626 C 830.313 117.716 830.313 114.807 830.312 111.897 C 830.312 111.181 830.312 110.465 830.312 109.727 C 830.309 98.972 830.312 88.218 830.317 77.463 C 830.323 65.216 830.321 52.97 830.311 40.723 C 830.305 34.487 830.303 28.252 830.31 22.016 C 830.368 -37.321 829.335 -94.365 785.42 -139.48 C 764.205 -160.61 736.174 -173 707.045 -178.48 C 706.132 -178.66 705.219 -178.83 704.279 -179.01 C 692.87 -180.91 681.536 -180.76 670.001 -180.74 C 667.668 -180.74 665.335 -180.74 663.002 -180.74 C 656.617 -180.75 650.232 -180.75 643.847 -180.74 C 637.659 -180.74 631.472 -180.74 625.285 -180.75 C 611.854 -180.76 598.423 -180.76 584.992 -180.75 C 573.235 -180.75 561.478 -180.75 549.721 -180.75 C 548.55 -180.75 548.55 -180.75 547.355 -180.75 C 544.184 -180.75 541.014 -180.75 537.843 -180.75 C 508.118 -180.76 478.392 -180.75 448.666 -180.74 C 422.288 -180.73 395.909 -180.73 369.53 -180.74 C 339.865 -180.75 310.2 -180.76 280.535 -180.75 C 277.369 -180.75 274.203 -180.75 271.037 -180.75 C 270.258 -180.75 269.478 -180.75 268.675 -180.75 C 256.932 -180.75 245.189 -180.75 233.446 -180.75 C 220.083 -180.76 206.719 -180.76 193.356 -180.75 C 186.542 -180.74 179.729 -180.74 172.916 -180.75 C 166.669 -180.75 160.422 -180.75 154.175 -180.74 C 151.925 -180.74 149.674 -180.74 147.424 -180.74 C 130.836 -180.78 113.979 -180.61 97.857 -176.23 Z" style="stroke-width: 1; fill: none;"/>
  <path d="M 297.927 19.441 C 320.041 24.378 343.123 23.819 365.663 23.755 C 369.508 23.746 373.352 23.748 377.196 23.748 C 383.638 23.747 390.08 23.739 396.521 23.725 C 403.906 23.709 411.291 23.704 418.675 23.705 C 426.638 23.706 434.6 23.699 442.563 23.689 C 444.816 23.687 447.068 23.687 449.321 23.686 C 469.158 23.688 469.158 23.688 488.983 23.083 C 490.185 23.028 490.185 23.028 491.412 22.971 C 504.639 22.257 517.373 19.504 530.232 16.457 C 565.291 8.171 602.428 9.525 633.956 28.68 C 672.412 53.47 687.451 91.248 696.807 134.159 C 700.805 152.711 704.456 171.337 708.144 189.952 C 712.27 210.775 716.528 231.564 720.92 252.332 C 724.651 269.999 728.335 287.672 731.795 305.394 C 731.96 306.237 732.125 307.08 732.295 307.949 C 732.752 310.281 733.204 312.615 733.654 314.949 C 734.025 316.871 734.025 316.871 734.403 318.831 C 739.346 347.245 736.726 376.327 720.045 400.519 C 705.524 418.731 687.401 430.26 664.087 433.242 C 644.609 435.017 623.938 430.802 608.473 418.243 C 604.864 415.141 601.432 411.861 598.045 408.519 C 597.48 407.979 596.916 407.439 596.335 406.883 C 592.19 402.858 588.68 398.63 585.295 393.957 C 584.249 392.538 583.202 391.12 582.154 389.703 C 581.374 388.647 581.374 388.647 580.578 387.57 C 578.289 384.509 575.921 381.512 573.545 378.519 C 569.232 373.073 565.037 367.549 560.883 361.981 C 555.894 355.299 550.835 348.67 545.774 342.041 C 542.174 337.322 538.591 332.592 535.045 327.832 C 531.154 322.635 527.168 317.533 523.045 312.519 C 522.421 311.736 521.797 310.952 521.154 310.144 C 516.2 304.184 510.781 300.299 504.045 296.519 C 502.805 295.808 502.805 295.808 501.541 295.082 C 488.815 288.218 475.178 287.374 461.014 287.342 C 459.723 287.336 458.432 287.329 457.103 287.322 C 452.845 287.302 448.587 287.291 444.33 287.281 C 442.854 287.277 441.378 287.273 439.903 287.269 C 432.963 287.25 426.024 287.235 419.084 287.227 C 411.121 287.217 403.158 287.191 395.195 287.151 C 389.009 287.12 382.824 287.106 376.638 287.102 C 372.958 287.1 369.279 287.091 365.599 287.066 C 338.796 286.695 338.796 286.695 313.67 295.207 C 313.015 295.552 312.361 295.896 311.686 296.251 C 300.66 302.262 293.039 310.423 285.643 320.379 C 283.878 322.743 282.085 325.083 280.287 327.422 C 273.738 335.949 267.271 344.531 260.92 353.207 C 255.251 360.948 249.413 368.541 243.498 376.094 C 240.035 380.517 236.632 384.985 233.232 389.457 C 228.3 395.922 223.34 402.344 218.045 408.519 C 217.524 409.137 217.003 409.754 216.466 410.39 C 202.851 425.278 183.147 432.232 163.478 433.805 C 140.938 434.394 120.626 426.589 104.225 411.166 C 98.473 405.54 93.937 399.594 90.045 392.519 C 89.586 391.71 89.127 390.9 88.654 390.066 C 81.388 376.498 78.688 361.58 78.67 346.332 C 78.645 345.342 78.621 344.353 78.595 343.334 C 78.523 323.665 83.861 303.787 87.67 284.582 C 88.106 282.369 88.542 280.156 88.978 277.944 C 92.181 261.721 95.476 245.518 98.801 229.319 C 101.662 215.379 104.458 201.428 107.17 187.457 C 107.494 185.787 107.819 184.116 108.144 182.446 C 109.45 175.732 110.756 169.018 112.052 162.302 C 127.469 82.536 127.469 82.536 150.045 55.519 C 150.876 54.524 151.707 53.529 152.564 52.504 C 166.167 36.743 183.501 25.477 203.045 18.519 C 204.103 18.139 205.161 17.759 206.252 17.367 C 236.993 7.12 267.189 12.143 297.927 19.441 Z" fill="#FEFEFE" style="stroke-width: 1;"/>
  <path d="M 249.42 95.207 C 250.173 95.212 250.927 95.217 251.703 95.222 C 258.45 95.364 263.535 95.946 268.482 101.019 C 271.374 105.647 271.176 109.845 271.142 115.125 C 271.141 115.964 271.139 116.803 271.138 117.668 C 271.132 120.348 271.12 123.027 271.107 125.707 C 271.102 127.524 271.097 129.341 271.093 131.158 C 271.082 135.612 271.065 140.066 271.045 144.519 C 272.195 144.498 273.345 144.477 274.529 144.456 C 278.812 144.383 283.095 144.337 287.378 144.3 C 289.228 144.28 291.079 144.252 292.929 144.218 C 295.595 144.169 298.261 144.146 300.927 144.129 C 301.749 144.108 302.572 144.087 303.419 144.066 C 308.777 144.064 311.797 144.953 316.045 148.519 C 319.742 153.698 319.496 158.898 319.42 165.019 C 319.431 165.944 319.443 166.868 319.455 167.82 C 319.432 173.12 319.069 176.975 316.045 181.519 C 309.962 186.412 304.683 186.671 297.119 186.617 C 295.997 186.615 295.997 186.615 294.853 186.613 C 292.48 186.607 290.106 186.595 287.732 186.582 C 286.117 186.577 284.502 186.572 282.886 186.568 C 278.939 186.557 274.992 186.54 271.045 186.519 C 271.076 188.199 271.076 188.199 271.108 189.912 C 271.181 194.083 271.226 198.254 271.264 202.425 C 271.284 204.227 271.312 206.029 271.346 207.831 C 271.395 210.428 271.418 213.024 271.435 215.621 C 271.456 216.421 271.476 217.221 271.498 218.046 C 271.5 223.353 270.528 226.287 267.045 230.519 C 261.773 235.152 256.468 234.764 249.795 234.832 C 248.865 234.861 247.936 234.89 246.978 234.92 C 240.77 234.977 237.034 234.313 232.045 230.519 C 228.445 226.038 228.649 221.984 228.752 216.5 C 228.756 215.641 228.76 214.783 228.764 213.898 C 228.781 211.167 228.819 208.437 228.857 205.707 C 228.872 203.851 228.886 201.995 228.898 200.138 C 228.931 195.598 228.983 191.059 229.045 186.519 C 227.381 186.551 227.381 186.551 225.683 186.583 C 221.538 186.656 217.394 186.701 213.249 186.739 C 211.46 186.759 209.672 186.786 207.883 186.821 C 205.302 186.87 202.721 186.892 200.138 186.91 C 198.953 186.941 198.953 186.941 197.745 186.973 C 192.096 186.975 187.746 185.728 183.045 182.519 C 178.728 176.95 178.784 171.04 178.67 164.269 C 178.632 163.448 178.595 162.627 178.556 161.781 C 178.48 156.437 179.459 152.808 182.183 148.22 C 187.365 143.488 193.999 143.087 200.701 143.226 C 201.882 143.233 201.882 143.233 203.088 143.239 C 205.574 143.256 208.059 143.293 210.545 143.332 C 212.242 143.347 213.94 143.361 215.638 143.373 C 219.774 143.406 223.909 143.457 228.045 143.519 C 228.029 142.46 228.013 141.401 227.997 140.31 C 227.942 136.363 227.908 132.416 227.88 128.468 C 227.865 126.763 227.844 125.058 227.818 123.353 C 227.782 120.895 227.765 118.438 227.752 115.98 C 227.736 115.224 227.721 114.467 227.705 113.688 C 227.703 107.85 229.133 103.892 232.857 99.269 C 237.8 95.315 243.36 95.161 249.42 95.207 Z" fill="#5C88B3" style="stroke-width: 1;"/>
  <path d="M 639.892 146.902 C 645.356 151.008 650.684 156.633 652.044 163.519 C 652.993 172.858 652.743 180.79 647.044 188.519 C 641.822 194.773 634.411 197.722 626.466 198.902 C 618.561 199.275 611.501 196.671 605.232 191.894 C 599.016 185.958 596.737 179.536 596.419 171.019 C 596.766 161.963 599.295 155.781 605.919 149.582 C 615.751 141.877 628.8 140.368 639.892 146.902 Z" fill="#5A86B3" style="stroke-width: 1;"/>
  <path d="M 522.724 146.137 C 529.441 150.139 533.883 155.489 536.42 162.883 C 538.418 171.313 537.39 179.008 533.045 186.519 C 528.263 192.839 521.813 196.925 514.045 198.519 C 505.1 199.682 498.522 197.446 491.045 192.519 C 484.837 187.519 482.044 180.086 480.662 172.387 C 480.204 164.849 483.656 157.855 488.295 152.144 C 497.228 142.614 510.991 140.742 522.724 146.137 Z" fill="#5A86B3" style="stroke-width: 1;"/>
  <path d="M 579.982 93.199 C 586.867 97.607 592.146 102.323 594.044 110.519 C 595.114 119.797 594.773 127.876 589.044 135.519 C 583.638 141.595 578.07 144.945 570.002 145.867 C 561.123 146.273 554.923 144.402 547.978 138.875 C 541.734 133.1 539.442 126.682 538.794 118.269 C 539.378 109.511 542.853 102.269 549.357 96.332 C 558.21 89.231 569.714 87.801 579.982 93.199 Z" fill="#5A86B3" style="stroke-width: 1;"/>
  <path d="M 579.982 199.199 C 586.867 203.607 592.146 208.323 594.044 216.519 C 595.117 225.822 594.73 233.829 589.044 241.519 C 583.953 247.476 576.995 250.835 569.275 251.902 C 560.631 252.265 554.398 249.644 547.732 244.269 C 542.553 239.472 539.542 233.52 538.841 226.476 C 538.652 217.832 540.563 211.88 546.169 205.207 C 555.231 195.839 567.998 192.899 579.982 199.199 Z" fill="#5A86B3" style="stroke-width: 1;"/>
  <path d="M 284.045 321.519 C 284.641 323.369 284.641 323.369 285.045 325.519 C 283.498 327.922 283.498 327.922 281.295 330.457 C 278.516 333.69 276.179 336.829 274.045 340.519 C 272.743 342.211 271.407 343.876 270.045 345.519 C 269.64 346.04 269.235 346.561 268.818 347.097 C 266.493 350.035 264.601 352.202 261.045 353.519 C 262.446 350.522 264.089 347.946 266.056 345.289 C 266.65 344.485 267.243 343.681 267.855 342.853 C 268.474 342.021 269.094 341.189 269.732 340.332 C 270.632 339.113 270.632 339.113 271.55 337.869 C 275.634 332.355 279.809 326.917 284.045 321.519 Z" fill="#4576AB" style="stroke-width: 1;"/>
  <path d="M -14.955 496.519 C -14.625 496.519 -14.295 496.519 -13.955 496.519 C -13.895 497.302 -13.834 498.084 -13.772 498.89 C -13.688 499.902 -13.604 500.914 -13.518 501.957 C -13.437 502.966 -13.356 503.976 -13.272 505.015 C -13.223 507.456 -13.223 507.456 -11.955 508.519 C -11.883 510.539 -11.872 512.561 -11.893 514.582 C -11.902 515.687 -11.911 516.791 -11.92 517.929 C -11.932 518.784 -11.944 519.639 -11.955 520.519 C -12.945 519.859 -13.935 519.199 -14.955 518.519 C -15.296 516.273 -15.296 516.273 -15.248 513.512 C -15.239 512.525 -15.229 511.539 -15.219 510.523 C -15.194 509.491 -15.169 508.458 -15.143 507.394 C -15.129 506.354 -15.116 505.314 -15.102 504.242 C -15.067 501.667 -15.017 499.094 -14.955 496.519 Z" fill="#3C71A8" style="stroke-width: 1;"/>
  <path d="M 241.045 378.519 C 241.045 384.676 237.06 389.21 233.045 393.519 C 230.732 394.894 230.732 394.894 229.045 395.519 C 230.716 391.747 233.118 388.591 235.607 385.332 C 236.019 384.786 236.431 384.24 236.855 383.678 C 239.875 379.689 239.875 379.689 241.045 378.519 Z" fill="#386EA9" style="stroke-width: 1;"/>
  <path d="M 61.045 638.519 C 66.73 640.165 71.811 642.81 77.045 645.519 C 77.045 645.849 77.045 646.179 77.045 646.519 C 71.162 647.274 66.674 644.979 62.045 641.519 C 61.715 640.529 61.385 639.539 61.045 638.519 Z" fill="#4B7BAD" style="stroke-width: 1;"/>
  <path d="M 40.045 -148.48 C 40.705 -148.15 41.365 -147.82 42.045 -147.48 C 40.593 -145.81 39.133 -144.14 37.67 -142.48 C 36.857 -141.55 36.045 -140.62 35.209 -139.67 C 34.494 -138.95 33.78 -138.22 33.045 -137.48 C 32.385 -137.48 31.725 -137.48 31.045 -137.48 C 31.045 -136.82 31.045 -136.16 31.045 -135.48 C 30.385 -135.81 29.725 -136.14 29.045 -136.48 C 31.572 -141.69 35.662 -144.87 40.045 -148.48 Z" fill="#4072A8" style="stroke-width: 1;"/>
  <path d="M 102.045 207.519 C 102.375 207.519 102.705 207.519 103.045 207.519 C 102.529 215.402 100.952 222.864 99.045 230.519 C 98.715 230.519 98.385 230.519 98.045 230.519 C 98.189 229.261 98.333 228.003 98.482 226.707 C 99.083 221.318 99.57 215.921 100.045 210.519 C 100.705 210.519 101.365 210.519 102.045 210.519 C 102.045 209.529 102.045 208.539 102.045 207.519 Z" fill="#1D5EA3" style="stroke-width: 1;"/>
  <path d="M 728.044 286.519 C 728.374 287.179 728.704 287.839 729.044 288.519 C 729.704 288.849 730.364 289.179 731.044 289.519 C 730.714 290.839 730.384 292.159 730.044 293.519 C 731.034 293.519 732.024 293.519 733.044 293.519 C 732.432 296.481 731.791 297.9 730.044 300.519 C 727.748 291.109 727.748 291.109 728.044 286.519 Z" fill="#306AA6" style="stroke-width: 1;"/>
  <path d="M 1.045 574.519 C 6.232 578.725 7.517 583.125 9.045 589.519 C 6.572 587.257 4.981 584.945 3.357 582.019 C 2.702 580.859 2.702 580.859 2.033 579.676 C 1.045 577.519 1.045 577.519 1.045 574.519 Z" fill="#2C65A4" style="stroke-width: 1;"/>
  <path d="M 228.045 395.519 C 228.045 398.84 227.614 400.605 226.045 403.519 C 223.42 404.832 223.42 404.832 221.045 405.519 C 222.712 401.578 225.272 398.73 228.045 395.519 Z" fill="#376CA7" style="stroke-width: 1;"/>
  <path d="M 725.044 271.519 C 727.044 273.519 727.044 273.519 727.169 276.144 C 727.128 276.928 727.087 277.712 727.044 278.519 C 727.704 278.519 728.364 278.519 729.044 278.519 C 728.714 280.829 728.384 283.139 728.044 285.519 C 726.252 282.4 725.702 279.843 725.419 276.269 C 725.345 275.377 725.27 274.485 725.193 273.566 C 725.144 272.891 725.095 272.215 725.044 271.519 Z" fill="#2A67A5" style="stroke-width: 1;"/>
  <path d="M 50.045 -155.48 C 50.705 -155.15 51.365 -154.82 52.045 -154.48 C 48.871 -150.94 46.877 -148.9 42.045 -148.48 C 44.622 -151.13 46.961 -153.43 50.045 -155.48 Z" fill="#396CA5" style="stroke-width: 1;"/>
  <path d="M 703.044 416.519 C 705.357 416.707 705.357 416.707 707.044 417.519 C 703.721 421.458 703.721 421.458 700.294 421.769 C 699.552 421.687 698.809 421.604 698.044 421.519 C 700.294 418.957 700.294 418.957 703.044 416.519 Z" fill="#4375AB" style="stroke-width: 1;"/>
  <path d="M 297.045 305.519 C 298.365 305.849 299.685 306.179 301.045 306.519 C 297.58 309.489 297.58 309.489 294.045 312.519 C 294.795 307.769 294.795 307.769 297.045 305.519 Z" fill="#5582B2" style="stroke-width: 1;"/>
  <path d="M 88.045 389.519 C 90.66 391.885 92.435 394.38 94.045 397.519 C 93.715 398.179 93.385 398.839 93.045 399.519 C 91.107 398.457 91.107 398.457 89.045 396.519 C 88.295 392.832 88.295 392.832 88.045 389.519 Z" fill="#336CA9" style="stroke-width: 1;"/>
  <path d="M 247.045 372.519 C 247.045 375.519 247.045 375.519 244.545 378.207 C 243.72 378.97 242.895 379.733 242.045 380.519 C 242.395 377.277 242.607 375.904 245.107 373.707 C 245.746 373.315 246.386 372.923 247.045 372.519 Z" fill="#517EAF" style="stroke-width: 1;"/>
  <path d="M 635.044 29.519 C 641.691 30.996 641.691 30.996 643.482 33.644 C 643.76 34.572 643.76 34.572 644.044 35.519 C 640.108 34.207 637.817 32.6 635.044 29.519 Z" fill="#346AA7" style="stroke-width: 1;"/>
  <path d="M 530.044 321.519 C 532.544 323.832 532.544 323.832 535.044 326.519 C 535.044 327.509 535.044 328.499 535.044 329.519 C 532.261 327.813 531.191 327.043 530.294 323.832 C 530.212 323.069 530.129 322.306 530.044 321.519 Z" fill="#366BA8" style="stroke-width: 1;"/>
  <path d="M 284.045 321.519 C 284.375 322.839 284.705 324.159 285.045 325.519 C 283.065 326.839 281.085 328.159 279.045 329.519 C 280.416 326.565 282.033 324.079 284.045 321.519 Z" fill="#386BA8" style="stroke-width: 1;"/>
  <path d="M 17.045 -125.48 C 17.375 -124.82 17.705 -124.16 18.045 -123.48 C 16.795 -120.92 16.795 -120.92 15.045 -118.48 C 14.055 -118.15 13.065 -117.82 12.045 -117.48 C 13.23 -120.86 14.32 -123.13 17.045 -125.48 Z" fill="#3568A5" style="stroke-width: 1;"/>
</svg>
